<?xml version="1.0" encoding="UTF-8"?>
<svg width="484px" height="109px" viewBox="0 0 484 109" version="1.1" xmlns="http://www.w3.org/2000/svg" xmlns:xlink="http://www.w3.org/1999/xlink">
    <!-- Generator: Sketch 59 (86127) - https://sketch.com -->
    <title>Logotype</title>
    <desc>Created with Sketch.</desc>
    <g id="symbols" stroke="none" stroke-width="1" fill="none" fill-rule="evenodd">
        <g id="Logotype" fill-rule="nonzero">
            <g>
                <path d="M68.482,23.948 C59.824,23.948 54.163,28.055 51.166,31.829 L50.833,31.829 C47.392,26.723 41.398,23.948 33.517,23.948 C25.969,23.948 20.863,26.723 17.644,30.497 L17.2,30.497 L15.868,24.947 L0.55,24.947 L0.55,83 L17.644,83 L17.644,50.81 C17.644,43.817 22.084,39.488 28.189,39.488 C34.96,39.488 37.291,43.484 37.291,50.144 L37.291,83 L54.163,83 L54.163,50.81 C54.163,43.928 57.715,39.488 63.82,39.488 C70.591,39.488 72.922,43.484 72.922,50.144 L72.922,83 L90.016,83 L90.016,44.816 C90.016,31.94 81.358,23.948 68.482,23.948 Z M108.553,108.419 L108.553,107.309 L116.878,83 L113.992,83 L95.566,26.057 L95.566,24.947 L113.104,24.947 L124.87,66.128 L125.314,66.128 L137.857,24.947 L156.283,24.947 L156.283,26.057 L127.09,108.419 L108.553,108.419 Z" id="my" fill="#708D81"></path>
                <path d="M162.943,108.419 L180.037,108.419 L180.037,77.45 L180.481,77.45 C183.256,80.78 187.696,83.999 195.91,83.999 C210.562,83.999 219.442,71.345 219.442,54.029 C219.442,36.602 210.34,23.948 195.91,23.948 C187.696,23.948 183.256,27.167 180.481,30.497 L180.037,30.497 L178.261,24.947 L162.943,24.947 L162.943,108.419 Z M190.693,69.014 C182.147442,69.014 179.33307,62.3095925 179.261411,54.3440711 L179.26,54.029 C179.26,45.926 182.257,38.933 190.693,38.933 C199.129,38.933 202.126,45.926 202.126,54.029 L202.120329,54.6578322 C201.977875,62.4848636 199.126117,69.014 190.693,69.014 Z M227.767,83 L244.861,83 L244.861,0.86 L227.767,0.86 L227.767,83 Z M272.389,83.999 C279.604,83.999 284.71,81.446 287.929,77.783 L288.373,77.783 L289.594,83 L304.912,83 L304.912,44.816 C304.912,32.717 295.366,23.948 279.493,23.948 C262.399,23.948 254.518,33.272 254.518,44.15 L270.502,44.15 C270.502,40.598 273.61,37.712 278.938,37.712 C285.265,37.712 287.818,40.82 287.818,44.816 L287.818,49.589 C285.487,48.812 279.715,47.924 275.386,47.924 C259.402,47.924 252.076,55.028 252.076,65.795 C252.076,76.118 259.291,83.999 272.389,83.999 Z M276.718,70.679 C271.612,70.679 268.948,68.237 268.948,64.907 C268.948,61.799 271.834,59.357 277.384,59.357 C280.714,59.357 284.266,59.801 287.818,61.244 L287.818,61.799 C287.818,66.572 283.711,70.679 276.718,70.679 Z M314.902,83 L331.996,83 L331.996,50.81 C331.996,43.817 336.436,39.488 342.541,39.488 C349.312,39.488 352.309,43.484 352.309,50.144 L352.309,83 L369.403,83 L369.403,44.816 C369.403,31.94 360.745,23.948 347.869,23.948 C340.321,23.948 335.215,26.723 331.996,30.497 L331.552,30.497 L330.22,24.947 L314.902,24.947 L314.902,83 Z M404.923,83.999 C410.362,83.999 414.913,83 416.689,82.334 L416.689,68.126 L415.579,68.126 C413.803,68.792 411.916,69.125 410.029,69.125 C404.923,69.125 402.592,66.794 402.592,61.355 L402.592,39.488 L416.467,39.488 L416.467,24.947 L402.592,24.947 L402.592,9.74 L401.482,9.74 L386.275,12.848 L386.275,24.947 L376.063,24.947 L376.063,39.488 L385.498,39.488 L385.498,65.462 C385.498,76.007 391.492,83.999 404.923,83.999 Z M435.781,108.419 L435.781,107.309 L444.106,83 L441.22,83 L422.794,26.057 L422.794,24.947 L440.332,24.947 L452.098,66.128 L452.542,66.128 L465.085,24.947 L483.511,24.947 L483.511,26.057 L454.318,108.419 L435.781,108.419 Z" id="planty" fill="#3D405B"></path>
            </g>
        </g>
    </g>
</svg>